<svg width="324" height="324" viewBox="0 0 324 324" fill="none" xmlns="http://www.w3.org/2000/svg">
<rect width="324" height="324" fill="#FDF3D9"/>
<path d="M162.251 85.7306C160.238 88.1437 158.225 97.0343 156.967 109.862C154.954 129.421 151.809 149.235 150.551 150.505C149.922 151.14 135.58 151.902 117.59 152.156C84.8806 152.791 84 152.918 84 158.125C84 161.936 89.158 163.714 105.261 165.746C113.061 166.762 121.616 168.159 124.132 168.921C126.648 169.556 133.945 170.191 140.361 170.191H151.935V197.752C151.935 226.075 152.816 233.314 156.967 237.76C160.364 241.443 167.913 240.427 171.309 235.855C173.825 232.425 173.951 230.393 174.329 202.451L174.706 172.731L183.135 173.493C187.79 173.874 195.59 173.493 200.37 172.731C205.277 171.969 212.322 170.953 216.096 170.699C219.87 170.318 224.148 169.556 225.532 168.921C226.915 168.286 230.186 167.143 232.828 166.381C235.344 165.619 237.483 164.095 237.483 163.079C237.483 162.063 238.112 161.301 238.741 161.301C239.496 161.301 239.999 158.76 239.999 155.585C239.999 150.505 239.496 149.616 235.848 147.076L231.57 144.281L234.59 141.741C239.748 137.296 238.741 127.516 232.828 124.722C227.67 122.436 224.274 122.817 220.625 126.5C216.599 130.692 216.348 135.645 219.996 140.217C221.757 142.503 222.261 144.154 221.506 144.916C220.877 145.552 212.699 146.695 203.39 147.457C194.08 148.219 183.89 148.981 180.745 149.235L174.958 149.743L174.077 128.024C172.945 99.3205 171.435 87.7627 168.667 85.6036C165.774 83.4444 164.264 83.4444 162.251 85.7306Z" fill="#CE572C"/>
<path d="M186.028 89.795C182.506 91.3191 178.354 96.3994 178.354 99.3206C178.354 100.972 179.864 103.893 181.625 106.052C184.141 109.1 185.777 109.862 189.928 109.862C194.08 109.862 195.589 109.1 197.98 106.052C201.754 101.226 201.754 97.2885 198.106 93.3512C195.212 90.176 189.173 88.3979 186.028 89.795Z" fill="#CE572C"/>
<path d="M220.373 93.2243C214.712 96.2725 211.692 99.0667 203.515 109.227C200.37 113.038 197.476 116.34 196.973 116.594C196.344 116.848 195.966 117.737 195.966 118.626C195.966 119.388 194.96 121.039 193.828 122.055C190.431 125.103 187.16 129.422 187.16 130.692C187.16 131.327 186.279 132.851 185.147 133.994C183.763 135.264 183.386 137.042 183.889 139.201C185.399 145.171 191.689 144.79 198.231 138.439C200.495 136.407 202.76 134.629 203.389 134.629C204.018 134.629 204.773 133.74 205.276 132.724C205.654 131.708 206.534 130.819 207.163 130.819C207.918 130.819 210.686 128.66 213.328 125.992C215.97 123.452 219.744 120.15 221.631 118.753C227.795 114.181 229.431 112.53 231.57 108.084C233.708 103.639 234.463 96.5265 232.702 96.5265C232.199 96.5265 230.311 95.1294 228.55 93.4783L225.405 90.5571L220.373 93.2243Z" fill="#CE572C"/>
<path d="M131.932 95.3829C129.794 97.6691 128.032 100.209 128.032 101.225C128.032 105.925 134.197 112.91 138.474 113.037C139.607 113.037 142.374 111.513 144.387 109.608C151.055 103.638 148.539 94.1129 139.732 92.2077C136.336 91.4457 135.203 91.8267 131.932 95.3829Z" fill="#CE572C"/>
<path d="M99.3476 99.1933C97.0831 101.352 95.3218 104.274 95.3218 105.671C95.3218 108.211 99.725 115.45 102.241 117.101C102.996 117.609 106.141 120.277 109.286 123.071C112.306 125.992 115.325 128.278 115.828 128.278C116.331 128.278 118.093 129.421 119.602 130.945C121.112 132.342 124.257 134.375 126.522 135.518C128.66 136.534 130.547 137.931 130.547 138.566C130.547 140.471 138.976 139.836 140.612 137.804C142.499 135.391 141.367 130.31 138.096 127.008C136.712 125.611 135.58 124.214 135.58 123.96C135.58 123.706 132.938 120.658 129.667 117.101C126.27 113.672 120.986 108.084 117.841 104.655C107.399 93.4779 105.638 92.9699 99.3476 99.1933Z" fill="#CE572C"/>
<path d="M94.4412 128.659C91.1702 131.962 90.667 137.804 93.4347 141.36C95.6992 144.535 103.373 144.535 106.77 141.487C110.293 138.185 109.915 131.708 106.015 129.549C104.254 128.659 102.87 127.389 102.87 126.754C102.87 124.722 97.0831 125.992 94.4412 128.659Z" fill="#CE572C"/>
<path d="M95.0711 174.129C92.0518 176.415 91.5486 177.685 91.5486 182.892C91.5486 186.195 92.3034 189.497 93.1841 190.132C95.9518 192.418 102.745 194.196 103.5 192.926C104.003 192.291 105.387 191.783 106.771 191.783C108.029 191.783 109.161 191.148 109.161 190.386C109.161 189.497 110.294 187.846 111.803 186.576C114.697 184.036 114.319 181.114 110.671 176.923C105.639 171.081 100.355 170.192 95.0711 174.129Z" fill="#CE572C"/>
<path d="M225.531 177.431C221.882 178.066 217.731 187.972 221.127 187.972C221.882 187.972 222.385 188.861 222.385 189.877C222.385 193.18 230.311 192.291 233.708 188.607C236.35 185.813 236.476 185.051 235.092 182.384C233.205 178.955 229.179 176.923 225.531 177.431Z" fill="#CE572C"/>
<path d="M127.781 182.638C124.51 184.544 120.862 186.957 119.604 187.973C118.346 188.989 115.704 191.021 113.565 192.291C109.791 194.704 108.03 196.101 104.759 199.023C103.878 199.912 102.746 200.674 102.243 200.674C101.362 200.674 99.0976 202.452 94.5686 206.643C90.417 210.453 90.5428 216.55 94.8202 220.487C96.5815 222.138 98.7202 223.535 99.7267 223.535C102.243 223.535 107.904 220.741 107.904 219.471C107.904 218.963 108.533 218.455 109.162 218.455C111.427 218.455 117.969 212.993 117.969 211.215C117.969 210.326 118.723 209.564 119.73 209.564C121.869 209.564 135.581 195.72 135.581 193.434C135.581 192.545 136.085 191.783 136.839 191.783C138.978 191.783 140.739 186.576 139.985 182.765C138.978 178.066 135.707 177.939 127.781 182.638Z" fill="#CE572C"/>
<path d="M182.255 181.242C177.223 186.957 183.89 201.436 197.98 215.28C216.726 233.696 220.374 236.236 229.18 236.236C236.477 236.236 240 233.823 240 228.997C240 226.076 236.1 218.455 234.716 218.455C234.087 218.455 233.709 217.947 233.709 217.185C233.709 216.042 227.796 209.565 226.79 209.565C226.413 209.565 224.022 207.532 221.506 205.119C218.99 202.706 216.348 200.674 215.845 200.674C215.342 200.674 213.077 198.642 210.687 196.229C208.297 193.816 205.906 191.783 205.151 191.783C204.522 191.783 202.761 190.513 201.251 188.862C197.98 185.306 195.087 182.893 194.081 182.893C193.577 182.893 192.445 182.004 191.439 180.988C188.922 178.575 184.519 178.575 182.255 181.242Z" fill="#CE572C"/>
<path d="M127.78 212.231C125.767 213.629 124.258 215.661 124.258 216.677C124.258 217.693 123.755 218.455 123 218.455C120.735 218.455 121.616 223.916 124.635 228.235C127.026 231.918 128.158 232.426 132.813 232.426C144.009 232.426 148.664 220.614 140.361 213.248C135.455 208.929 132.435 208.675 127.78 212.231Z" fill="#CE572C"/>
<path d="M181.123 223.408C178.606 227.981 178.481 228.489 180.368 232.299C181.374 234.458 183.513 237.125 185.023 238.141C188.419 240.554 194.584 240.554 195.464 238.141C195.842 237.125 197.226 235.982 198.61 235.601C200.497 234.966 201 233.569 201 229.124C201 221.122 198.358 218.455 190.306 218.455C184.142 218.455 183.764 218.709 181.123 223.408Z" fill="#CE572C"/>
</svg>
